<svg width="24" height="24" viewBox="0 0 24 24" fill="none" xmlns="http://www.w3.org/2000/svg">
<path fill-rule="evenodd" clip-rule="evenodd" d="M10.8792 16.5H19C19.5523 16.5 20 16.0523 20 15.5V7C20 6.44772 19.5523 6 19 6H5C4.44772 6 4 6.44772 4 7V15.5C4 16.0523 4.44772 16.5 5 16.5H9V18.3769L10.8792 16.5ZM5 18C3.61929 18 2.5 16.8807 2.5 15.5V7C2.5 5.61929 3.61929 4.5 5 4.5H19C20.3807 4.5 21.5 5.61929 21.5 7V15.5C21.5 16.8807 20.3807 18 19 18H11.5L9.20711 20.29C8.81658 20.6805 8.18342 20.6805 7.79289 20.29C7.60536 20.1025 7.5 19.8552 7.5 19.59V18H5Z" fill="black"/>
</svg>
