<svg width="24" height="24" viewBox="0 0 24 24" fill="none" xmlns="http://www.w3.org/2000/svg">
<path fill-rule="evenodd" clip-rule="evenodd" d="M2.47303 7.10363C1.84415 7.38526 1.84179 8.2772 2.46918 8.56215L5.80764 10.0784L5.80761 17.1086C5.8076 17.6935 6.13687 18.2286 6.65901 18.4923L10.9148 20.641C11.5489 20.9612 12.297 20.9631 12.9327 20.6462L17.2522 18.493C17.7783 18.2308 18.1107 17.6936 18.1107 17.1058L18.1107 10.0739H18.0725L20.5645 8.95292V15.2473H22.0645V7.82886H21.9088C21.9081 7.53502 21.7504 7.24154 21.4357 7.10067L12.5699 3.13097C12.1799 2.95633 11.7339 2.95634 11.3438 3.13101L2.47303 7.10363ZM4.50264 7.83825L11.9087 11.202L19.3992 7.83231L11.9569 4.5L4.50264 7.83825ZM7.30761 17.1086L7.30764 10.7597L11.2884 12.5677C11.6809 12.7459 12.131 12.7467 12.5241 12.5699L16.6107 10.7315V17.1058C16.6107 17.1247 16.6 17.1421 16.583 17.1505L12.2635 19.3037C12.0516 19.4094 11.8023 19.4087 11.5909 19.302L7.33507 17.1532C7.31823 17.1447 7.30761 17.1275 7.30761 17.1086Z" fill="black"/>
</svg>
