<svg xmlns="http://www.w3.org/2000/svg" width="20" height="20" viewBox="0 0 24 24" fill="none">
<path d="M8.26279 2.85591C8.13564 2.4617 8.35214 2.03905 8.74636 1.9119C9.14057 1.78475 9.56322 2.00125 9.69037 2.39547L9.90524 3.06167C10.0324 3.45589 9.81589 3.87854 9.42167 4.00569C9.02746 4.13283 8.60481 3.91633 8.47766 3.52212L8.26279 2.85591Z" fill="black"/>
<path d="M9.06064 5.33028C8.93349 4.93606 9.14999 4.51341 9.54421 4.38626C9.93842 4.25912 10.3611 4.47562 10.4882 4.86983L10.7031 5.53604C10.8302 5.93025 10.6137 6.3529 10.2195 6.48005C9.82531 6.6072 9.40266 6.3907 9.27551 5.99648L9.06064 5.33028Z" fill="black"/>
<path d="M15.2971 1.92596C14.9034 1.79711 14.4799 2.01179 14.351 2.40545L14.1333 3.07072C14.0044 3.46438 14.2191 3.88796 14.6128 4.01681C15.0064 4.14566 15.43 3.93099 15.5589 3.53732L15.7766 2.87205C15.9054 2.47839 15.6908 2.05481 15.2971 1.92596Z" fill="black"/>
<path d="M13.5424 4.8764C13.6713 4.48273 14.0949 4.26806 14.4885 4.39691C14.8822 4.52576 15.0969 4.94934 14.968 5.343L14.7503 6.00827C14.6214 6.40193 14.1978 6.61661 13.8042 6.48776C13.4105 6.35891 13.1958 5.93533 13.3247 5.54167L13.5424 4.8764Z" fill="black"/>
<path d="M20.5893 5.78792C20.3465 5.45229 19.8777 5.37699 19.542 5.61974L18.9748 6.02996C18.6392 6.27271 18.5639 6.74157 18.8067 7.0772C19.0494 7.41283 19.5183 7.48813 19.8539 7.24539L20.4211 6.83516C20.7567 6.59242 20.832 6.12355 20.5893 5.78792Z" fill="black"/>
<path d="M17.4356 7.14342C17.7712 6.90067 18.2401 6.97597 18.4828 7.3116C18.7256 7.64723 18.6503 8.1161 18.3146 8.35884L17.7474 8.76907C17.4118 9.01181 16.943 8.93651 16.7002 8.60088C16.4575 8.26525 16.5328 7.79639 16.8684 7.55364L17.4356 7.14342Z" fill="black"/>
<path d="M22.6003 12.023C22.6012 11.6088 22.2661 11.2723 21.8519 11.2714L21.1519 11.2698C20.7377 11.269 20.4012 11.604 20.4003 12.0182C20.3994 12.4324 20.7345 12.769 21.1487 12.7698L21.8487 12.7714C22.2629 12.7723 22.5994 12.4372 22.6003 12.023Z" fill="black"/>
<path d="M19.2523 11.2657C19.6665 11.2666 20.0016 11.6032 20.0007 12.0174C19.9998 12.4316 19.6633 12.7666 19.2491 12.7657L18.5491 12.7642C18.1348 12.7633 17.7998 12.4268 17.8007 12.0126C17.8016 11.5984 18.1381 11.2633 18.5523 11.2642L19.2523 11.2657Z" fill="black"/>
<path d="M20.5621 18.2489C20.8063 17.9143 20.733 17.4451 20.3984 17.2009L19.833 16.7883C19.4984 16.5441 19.0292 16.6174 18.7851 16.9519C18.5409 17.2865 18.6141 17.7557 18.9487 17.9999L19.5141 18.4126C19.8487 18.6568 20.3179 18.5835 20.5621 18.2489Z" fill="black"/>
<path d="M18.2988 15.6682C18.6334 15.9124 18.7067 16.3816 18.4625 16.7162C18.2183 17.0508 17.7491 17.124 17.4145 16.8799L16.8491 16.4672C16.5145 16.223 16.4413 15.7538 16.6854 15.4192C16.9296 15.0846 17.3988 15.0114 17.7334 15.2556L18.2988 15.6682Z" fill="black"/>
<path d="M15.2543 22.0879C15.6485 21.9608 15.865 21.5381 15.7379 21.1439L15.523 20.4777C15.3959 20.0835 14.9732 19.867 14.579 19.9941C14.1848 20.1213 13.9683 20.5439 14.0954 20.9381L14.3103 21.6044C14.4375 21.9986 14.8601 22.2151 15.2543 22.0879Z" fill="black"/>
<path d="M14.9391 18.6695C15.0662 19.0638 14.8497 19.4864 14.4555 19.6136C14.0613 19.7407 13.6386 19.5242 13.5115 19.13L13.2966 18.4638C13.1695 18.0696 13.386 17.6469 13.7802 17.5198C14.1744 17.3926 14.597 17.6091 14.7242 18.0033L14.9391 18.6695Z" fill="black"/>
<path d="M8.90766 21.7384C9.30133 21.8673 9.72491 21.6526 9.85376 21.2589L10.0715 20.5937C10.2004 20.2 9.98568 19.7764 9.59202 19.6476C9.19835 19.5187 8.77477 19.7334 8.64593 20.127L8.42818 20.7923C8.29933 21.186 8.514 21.6096 8.90766 21.7384Z" fill="black"/>
<path d="M10.6624 18.788C10.5335 19.1816 10.1099 19.3963 9.71626 19.2675C9.3226 19.1386 9.10792 18.715 9.23677 18.3214L9.45452 17.6561C9.58337 17.2624 10.0069 17.0478 10.4006 17.1766C10.7943 17.3055 11.0089 17.729 10.8801 18.1227L10.6624 18.788Z" fill="black"/>
<path d="M3.4114 18.2121C3.65414 18.5478 4.12301 18.6231 4.45864 18.3803L5.02584 17.9701C5.36147 17.7274 5.43676 17.2585 5.19402 16.9229C4.95128 16.5872 4.48241 16.5119 4.14678 16.7547L3.57958 17.1649C3.24395 17.4076 3.16865 17.8765 3.4114 18.2121Z" fill="black"/>
<path d="M6.56508 16.8566C6.22945 17.0994 5.76059 17.0241 5.51784 16.6885C5.2751 16.3528 5.3504 15.884 5.68603 15.6412L6.25323 15.231C6.58886 14.9882 7.05772 15.0635 7.30047 15.3992C7.54321 15.7348 7.46791 16.2037 7.13228 16.4464L6.56508 16.8566Z" fill="black"/>
<path d="M1.40039 11.9771C1.3995 12.3913 1.73456 12.7278 2.14877 12.7287L2.84877 12.7302C3.26298 12.7311 3.59949 12.396 3.60039 11.9818C3.60128 11.5676 3.26622 11.2311 2.85201 11.2302L2.15201 11.2287C1.7378 11.2278 1.40129 11.5629 1.40039 11.9771Z" fill="black"/>
<path d="M4.74838 12.7343C4.33417 12.7334 3.99911 12.3969 4 11.9827C4.0009 11.5685 4.33741 11.2334 4.75162 11.2343L5.45162 11.2358C5.86583 11.2367 6.20089 11.5732 6.2 11.9874C6.1991 12.4017 5.86259 12.7367 5.44838 12.7358L4.74838 12.7343Z" fill="black"/>
<path d="M3.4376 5.75091C3.19341 6.08549 3.26668 6.55468 3.60126 6.79887L4.16669 7.21154C4.50127 7.45573 4.97045 7.38246 5.21464 7.04788C5.45883 6.7133 5.38556 6.24411 5.05098 5.99992L4.48556 5.58725C4.15098 5.34306 3.68179 5.41633 3.4376 5.75091Z" fill="black"/>
<path d="M5.70185 8.33158C5.36727 8.08739 5.294 7.61821 5.53819 7.28363C5.78238 6.94905 6.25157 6.87577 6.58615 7.11996L7.15157 7.53264C7.48615 7.77683 7.55942 8.24601 7.31523 8.58059C7.07104 8.91517 6.60185 8.98845 6.26727 8.74426L5.70185 8.33158Z" fill="black"/>
<path d="M13.9285 11.2627C14.2507 11.1458 14.4415 10.8953 14.4415 10.6369C14.4415 10.2906 14.085 9.94804 13.5615 9.94804C13.0379 9.94804 12.6815 10.2906 12.6815 10.6369V13.3629C12.6815 14.101 12.2484 14.7374 11.6199 15.0926C11.2769 15.2864 10.8736 15.3999 10.4415 15.3999C9.22655 15.3999 8.20151 14.5056 8.20151 13.3629C8.20151 13.001 8.30646 12.6621 8.48729 12.369C8.76663 11.9162 9.22805 11.5746 9.77445 11.4192C9.87653 11.388 9.98346 11.3701 10.0915 11.3701C10.3071 11.3701 10.5061 11.4425 10.6332 11.5926C10.765 11.7484 10.7918 11.9557 10.7175 12.1572C10.6207 12.4201 10.3748 12.6208 10.1155 12.7235L10.1072 12.7268L10.1044 12.7276C10.0832 12.7345 10.0615 12.7427 10.0385 12.7521C9.73736 12.8749 9.56152 13.1146 9.56152 13.3629C9.56152 13.7092 9.91793 14.0517 10.4415 14.0517C10.9651 14.0517 11.3215 13.7092 11.3215 13.3629V10.6369C11.3215 9.89876 11.7545 9.26238 12.3831 8.90718C12.7261 8.71337 13.1294 8.59988 13.5615 8.59988C14.7764 8.59988 15.8015 9.49417 15.8015 10.6369C15.8015 10.9988 15.6965 11.3377 15.5157 11.6308C15.2372 12.0822 14.7779 12.4228 14.234 12.5791L14.2083 12.5866L14.1944 12.5904C14.104 12.6158 14.0066 12.6326 13.9063 12.6326C13.6914 12.6326 13.493 12.5605 13.3663 12.4108C13.2348 12.2555 13.2082 12.0487 13.2822 11.8479C13.3841 11.5714 13.6392 11.3592 13.9285 11.2627Z" fill="#4C4D4E"/>
</svg>