<svg xmlns="http://www.w3.org/2000/svg" width="72" height="22" viewBox="0 0 72 22" fill="none">
<path d="M0.608 16.816C0.44 16.792 0.368 16.696 0.416 16.528C2.408 11.992 3.272 8.056 3.872 4.432C3.896 4.288 3.992 4.192 4.136 4.216L5.72 4.384C5.888 4.408 5.96 4.48 5.936 4.672C5.408 8.272 4.496 12.28 2.648 16.864C2.6 16.984 2.456 17.104 2.336 17.08L0.608 16.816ZM5.864 19.288C5.816 19.096 5.864 19.024 6.032 19.024H8.384C9.752 19.024 9.92 18.688 9.92 17.272V0.447999C9.92 0.303999 10.016 0.207999 10.184 0.207999H11.84C11.96 0.207999 12.056 0.303999 12.056 0.447999V17.872C12.056 20.368 11.216 21.064 8.912 21.064H6.512C6.368 21.064 6.272 20.992 6.248 20.848L5.864 19.288ZM15.44 4.696C15.368 4.504 15.464 4.408 15.608 4.384L17.192 4.072C17.312 4.048 17.408 4.12 17.48 4.264C18.824 7.672 20.456 12.496 21.488 16.408C21.536 16.576 21.44 16.648 21.296 16.672L19.592 17.056C19.472 17.08 19.352 16.96 19.328 16.816C18.32 12.952 16.736 8.08 15.44 4.696ZM45.168 13.792C45.312 13.792 45.432 13.888 45.432 14.056V15.256C45.432 15.4 45.312 15.496 45.168 15.496H40.8V18.856H46.824C46.968 18.856 47.064 18.976 47.064 19.12V20.368C47.064 20.512 46.968 20.608 46.824 20.608H32.904C32.736 20.608 32.64 20.512 32.64 20.368V19.12C32.64 18.976 32.736 18.856 32.904 18.856H38.856V15.496H34.488C34.344 15.496 34.248 15.4 34.248 15.256V14.056C34.248 13.888 34.344 13.792 34.488 13.792H38.856V11.32H34.032C33.888 11.32 33.792 11.224 33.792 11.08V9.904C33.792 9.76 33.888 9.664 34.032 9.664H45.792C45.936 9.664 46.056 9.76 46.056 9.904V11.08C46.056 11.224 45.936 11.32 45.792 11.32H40.8V13.792H45.168ZM24.384 15.712C26.16 13.48 27.504 10.792 28.44 7.744H25.536C25.368 7.744 25.272 7.624 25.272 7.48V6.184C25.272 6.04 25.368 5.944 25.536 5.944H28.704V3.256C27.792 3.328 26.88 3.4 25.896 3.472C25.728 3.472 25.632 3.4 25.632 3.208L25.56 2.008C25.56 1.864 25.632 1.768 25.776 1.768C28.392 1.648 30.696 1.408 33.072 1.024C33.216 0.999999 33.312 1.072 33.336 1.216L33.528 2.44C33.552 2.608 33.456 2.68 33.288 2.704C32.376 2.848 31.464 2.968 30.552 3.064V5.944H33.264C33.408 5.944 33.528 6.04 33.528 6.184V7.48C33.528 7.624 33.408 7.744 33.264 7.744H30.552V9.136C31.296 9.76 32.712 11.032 33.672 11.896C33.792 11.992 33.792 12.136 33.72 12.256L32.976 13.216C32.832 13.384 32.736 13.408 32.616 13.24C32.016 12.592 31.224 11.824 30.552 11.224V20.896C30.552 21.04 30.48 21.136 30.336 21.136H28.896C28.776 21.136 28.704 21.04 28.704 20.896V11.464C27.936 13.408 27 15.16 25.848 16.696C25.776 16.816 25.656 16.864 25.536 16.768L24.456 16.048C24.336 15.976 24.288 15.856 24.384 15.712ZM34.536 6.64V2.416C34.536 1.624 34.992 1.168 35.784 1.168H44.136C44.928 1.168 45.384 1.624 45.384 2.416V6.64C45.384 7.432 44.928 7.888 44.136 7.888H35.784C34.992 7.888 34.536 7.432 34.536 6.64ZM36.48 5.92C36.48 6.064 36.576 6.16 36.744 6.16H43.128C43.32 6.16 43.416 6.064 43.416 5.92V3.136C43.416 2.992 43.32 2.896 43.128 2.896H36.792C36.576 2.896 36.48 2.992 36.48 3.136V5.92ZM50.296 20.44C50.176 20.368 50.152 20.224 50.224 20.08C52.072 16.864 52.432 14.56 52.432 9.328V3.496C52.432 2.608 52.888 2.104 53.68 2.104H61.36V0.256C61.36 0.0879989 61.432 -0.00800133 61.552 -0.00800133H63.28C63.4 -0.00800133 63.472 0.0879989 63.472 0.256V2.104H71.248C71.392 2.104 71.464 2.224 71.464 2.368V3.688C71.464 3.832 71.392 3.928 71.248 3.928H54.568C54.424 3.928 54.352 4.048 54.352 4.192V9.112C54.352 15.376 53.752 17.368 52 21.064C51.928 21.208 51.784 21.232 51.688 21.16L50.296 20.44ZM55.24 12.28V11.08C55.24 10.936 55.336 10.816 55.48 10.816H61.648C60.928 10.168 60.184 9.544 59.344 8.8C59.176 8.68 59.2 8.56 59.392 8.464L60.592 7.72C60.712 7.648 60.784 7.744 60.904 7.864L63.016 9.688C64.312 8.848 65.56 7.96 66.712 7H57.088C56.944 7 56.848 6.904 56.848 6.784V5.608C56.848 5.464 56.944 5.368 57.088 5.368H68.32C69.712 5.368 69.88 6.616 68.776 7.504C67.36 8.656 65.896 9.784 64.384 10.816H70C71.656 10.816 71.704 11.992 71.248 12.832C70.6 14.008 69.784 15.256 68.728 16.624C68.656 16.744 68.512 16.792 68.392 16.744L67.216 16.072C67.072 16 67 15.88 67.096 15.736C68.032 14.584 68.8 13.528 69.352 12.52H64.168V18.568C64.168 20.656 63.4 21.16 61.144 21.16H58.816C58.672 21.16 58.6 21.088 58.552 20.92L58.216 19.624C58.168 19.432 58.216 19.36 58.456 19.36H60.712C62.008 19.36 62.224 19.168 62.224 18.064V12.52H55.48C55.336 12.52 55.24 12.424 55.24 12.28Z" fill="#4C4D4E"/>
</svg>