<svg xmlns="http://www.w3.org/2000/svg" width="12" height="13" viewBox="0 0 12 13" fill="none">
<g clip-path="url(#clip0_43_4419)">
<path d="M12 6.5C12 9.81371 9.31371 12.5 6 12.5V11.45C8.73381 11.45 10.95 9.23381 10.95 6.5C10.95 3.76619 8.73381 1.55 6 1.55V0.5C9.31371 0.5 12 3.18629 12 6.5Z" fill="url(#paint0_linear_43_4419)" style=""/>
<path d="M6 11.45V12.5C2.68629 12.5 0 9.81371 0 6.5C0 3.18629 2.68629 0.5 6 0.5C6.28995 0.5 6.525 0.735051 6.525 1.025C6.525 1.31495 6.28995 1.55 6 1.55C3.26619 1.55 1.05 3.76619 1.05 6.5C1.05 9.23381 3.26619 11.45 6 11.45Z" fill="url(#paint1_linear_43_4419)" style=""/>
</g>
<defs>
<linearGradient id="paint0_linear_43_4419" x1="6" y1="1.55" x2="6" y2="11.375" gradientUnits="userSpaceOnUse">
<stop stop-color="#606060" stop-opacity="0" style="stop-color:none;stop-opacity:0;"/>
<stop offset="1" stop-color="#606060" stop-opacity="0.3" style="stop-color:#606060;stop-color:color(display-p3 0.3765 0.3765 0.3765);stop-opacity:0.3;"/>
</linearGradient>
<linearGradient id="paint1_linear_43_4419" x1="6" y1="1.55" x2="6" y2="11.45" gradientUnits="userSpaceOnUse">
<stop stop-color="#606060" style="stop-color:#606060;stop-color:color(display-p3 0.3765 0.3765 0.3765);stop-opacity:1;"/>
<stop offset="1" stop-color="#606060" stop-opacity="0.3" style="stop-color:#606060;stop-color:color(display-p3 0.3765 0.3765 0.3765);stop-opacity:0.3;"/>
</linearGradient>
<clipPath id="clip0_43_4419">
<rect width="12" height="12" fill="white" style="fill:white;fill-opacity:1;" transform="translate(0 0.5)"/>
</clipPath>
</defs>
</svg>