<?xml version="1.0" encoding="UTF-8"?>
<svg width="26px" height="26px" viewBox="0 0 26 26" version="1.1" xmlns="http://www.w3.org/2000/svg" xmlns:xlink="http://www.w3.org/1999/xlink">
    <title>annoucement</title>
    <defs>
        <rect id="path-1" x="0" y="0" width="24" height="24"></rect>
        <mask id="mask-2" maskContentUnits="userSpaceOnUse" maskUnits="objectBoundingBox" x="0" y="0" width="24" height="24" fill="white">
            <use xlink:href="#path-1"></use>
        </mask>
    </defs>
    <g id="小程序mp公告栏" stroke="none" stroke-width="1" fill="none" fill-rule="evenodd">
        <g id="公告栏优化" transform="translate(-324.000000, -123.000000)">
            <g id="annoucement" transform="translate(325.000000, 124.000000)">
                <g id="编组" opacity="0">
                    <g id="1.图标icon/1.基础图标/Bell备份-3">
                        <rect id="矩形" x="0" y="0" width="24" height="24"></rect>
                        <g id="3.Icons/z-grid" stroke="#000000">
                            <use id="Rectangle-10" mask="url(#mask-2)" stroke-width="0.2" stroke-dasharray="3,3,3,5" xlink:href="#path-1"></use>
                            <rect id="Rectangle-44" stroke-width="0.1" x="3.05" y="3.05" width="17.9" height="17.9" rx="1.5"></rect>
                            <rect id="Rectangle-42" stroke-width="0.1" x="2.05" y="4.05" width="19.9" height="15.9" rx="1.5"></rect>
                            <circle id="Oval-1" stroke-width="0.1" cx="12" cy="12" r="9.95"></circle>
                            <path d="M18.5,2.05 C18.9004064,2.05 19.2629064,2.21229678 19.5253048,2.47469517 C19.7877032,2.73709356 19.95,3.09959356 19.95,3.5 L19.95,3.5 L19.95,20.5 C19.95,20.9004064 19.7877032,21.2629064 19.5253048,21.5253048 C19.2629064,21.7877032 18.9004064,21.95 18.5,21.95 L18.5,21.95 L5.5,21.95 C5.09959356,21.95 4.73709356,21.7877032 4.47469517,21.5253048 C4.21229678,21.2629064 4.05,20.9004064 4.05,20.5 L4.05,20.5 L4.05,3.5 C4.05,3.09959356 4.21229678,2.73709356 4.47469517,2.47469517 C4.73709356,2.21229678 5.09959356,2.05 5.5,2.05 L5.5,2.05 Z" id="Rectangle-42" stroke-width="0.1"></path>
                            <line x1="0" y1="0" x2="24" y2="24" id="Path-7" stroke-width="0.1"></line>
                            <line x1="24" y1="0" x2="0" y2="24" id="Path-7" stroke-width="0.1"></line>
                        </g>
                    </g>
                </g>
                <path d="M13.5700627,4.46706565 C13.8460909,4.7458482 14,5.1157151 14,5.5002669 L14,18.4997332 C14,19.3281603 13.3001689,19.9997332 12.4368835,19.9997332 C12.0361474,19.9997332 11.6507174,19.8520387 11.3602043,19.5871562 L7.10826484,15.71 L3.56311653,15.710659 C2.69983111,15.710659 2,15.0390862 2,14.210659 L2,9.24420163 C2,8.4157745 2.69983111,7.74420163 3.56311653,7.74420163 L7.70537535,7.744 L11.3602043,4.41284694 C11.9860419,3.84222396 12.9754293,3.8664985 13.5700627,4.46706565 Z M16.4238687,15.188679 L16.5079636,15.2613244 L18.9828373,17.7377993 C19.2756358,18.0307872 19.2754823,18.5056609 18.9824943,18.7984594 C18.7161417,19.0646398 18.2994702,19.0887111 18.0059292,18.8707617 L17.9218342,18.7981164 L15.4469605,16.3216415 C15.154162,16.0286535 15.1543156,15.5537798 15.4473035,15.2609814 C15.7136561,14.9948009 16.1303276,14.9707296 16.4238687,15.188679 Z M12.4368835,5.5002669 L8.32942232,9.24396963 L3.56311653,9.24420163 L3.56311653,14.210659 L7.73235823,14.209884 L12.4368835,18.4997332 L12.4368835,5.5002669 Z M21.2413328,11.2765356 C21.6555187,11.2717482 21.9951636,11.6036313 21.999951,12.0178172 C22.0043394,12.3974876 21.7258311,12.7145229 21.3603539,12.768413 L21.2586693,12.7764354 L17.7586693,12.81689 C17.3444834,12.8216773 17.0048385,12.4897942 17.0000511,12.0756083 C16.9956627,11.6959379 17.274171,11.3789026 17.6396482,11.3250125 L17.7413328,11.3169901 L21.2413328,11.2765356 Z M18.9824938,5.25451153 C19.2488465,5.52069194 19.2731873,5.93734777 19.0554278,6.23102972 L18.9828369,6.31517164 L16.5079637,8.79164657 C16.2151652,9.08463452 15.7402915,9.08478814 15.4473036,8.79198968 C15.1809509,8.52580927 15.15661,8.10915344 15.3743695,7.81547149 L15.4469604,7.73132957 L17.9218337,5.25485464 C18.2146321,4.96186669 18.6895058,4.96171307 18.9824938,5.25451153 Z" id="形状结合备份" fill="#B1B2B3" fill-rule="nonzero"></path>
            </g>
        </g>
    </g>
</svg>